<svg xmlns="http://www.w3.org/2000/svg" xmlns:xlink="http://www.w3.org/1999/xlink" width="500" zoomAndPan="magnify" viewBox="0 0 375 374.999991" height="500" preserveAspectRatio="xMidYMid meet" version="1.0"><defs><g/><clipPath id="065cd970bb"><path d="M 310.976562 104 L 337.226562 104 L 337.226562 129.949219 L 310.976562 129.949219 Z M 310.976562 104 " clip-rule="nonzero"/></clipPath><clipPath id="6ab4011839"><path d="M 76.515625 249.167969 L 92.285156 249.167969 L 92.285156 260.703125 L 76.515625 260.703125 Z M 76.515625 249.167969 " clip-rule="nonzero"/></clipPath><clipPath id="63e3345af5"><path d="M 87.824219 260.699219 C 80.25 258.449219 77.851562 256.800781 77.023438 255.226562 C 76.425781 254.101562 76.5 252.523438 76.800781 251.550781 C 77.101562 250.726562 77.851562 250.050781 78.601562 249.675781 C 79.273438 249.300781 80.25 249.074219 81.074219 249.300781 C 82.050781 249.523438 83.550781 250.5 84.074219 251.550781 C 84.523438 252.523438 84.375 254.324219 83.851562 255.226562 C 83.25 256.199219 81.75 257.101562 80.699219 257.175781 C 79.574219 257.25 77.925781 256.5 77.25 255.601562 C 76.648438 254.699219 76.351562 252.976562 76.648438 251.925781 C 77.023438 250.875 78.375 249.75 79.351562 249.375 C 80.175781 249.074219 80.925781 249.226562 81.898438 249.523438 C 83.398438 249.976562 85.726562 252.226562 87.226562 252.824219 C 88.273438 253.199219 89.175781 252.976562 89.925781 253.425781 C 90.75 253.800781 91.574219 254.550781 91.949219 255.300781 C 92.25 256.050781 92.324219 257.175781 92.101562 258 C 91.875 258.824219 91.199219 259.726562 90.449219 260.175781 C 89.773438 260.625 87.824219 260.699219 87.824219 260.699219 " clip-rule="nonzero"/></clipPath><clipPath id="3444080378"><path d="M 52.804688 222.007812 L 65.769531 222.007812 L 65.769531 243.394531 L 52.804688 243.394531 Z M 52.804688 222.007812 " clip-rule="nonzero"/></clipPath><clipPath id="fe87800e27"><path d="M 58.875 241.875 C 54.449219 235.574219 53.851562 234.449219 53.476562 232.875 C 53.023438 230.925781 52.574219 227.925781 52.949219 226.125 C 53.25 224.773438 53.851562 223.351562 54.75 222.75 C 55.726562 222.148438 57.523438 221.925781 58.574219 222.375 C 59.625 222.75 60.75 224.25 61.050781 225.226562 C 61.273438 226.050781 61.125 227.101562 60.75 227.851562 C 60.375 228.601562 59.773438 229.351562 58.949219 229.726562 C 57.976562 230.175781 56.101562 230.175781 55.125 229.726562 C 54.375 229.351562 53.699219 228.601562 53.324219 227.851562 C 53.023438 227.101562 52.800781 226.050781 53.101562 225.226562 C 53.398438 224.25 54.601562 222.824219 55.574219 222.375 C 56.324219 221.925781 57.375 222 58.125 222.226562 C 58.949219 222.449219 59.773438 222.824219 60.300781 223.648438 C 61.273438 225.226562 60.449219 229.425781 61.351562 231.898438 C 62.175781 234.148438 64.726562 236.398438 65.324219 237.824219 C 65.625 238.574219 65.773438 239.023438 65.699219 239.625 C 65.625 240.449219 65.101562 241.574219 64.574219 242.175781 C 64.199219 242.625 63.601562 242.925781 63 243.148438 C 62.476562 243.300781 61.800781 243.375 61.199219 243.300781 C 60.449219 243.074219 58.800781 241.875 58.800781 241.875 " clip-rule="nonzero"/></clipPath><clipPath id="405cdc6838"><path d="M 47.679688 180.214844 L 57.910156 180.214844 L 57.910156 206.046875 L 47.679688 206.046875 Z M 47.679688 180.214844 " clip-rule="nonzero"/></clipPath><clipPath id="8e47d494eb"><path d="M 47.699219 202.199219 C 47.773438 188.476562 49.125 183.523438 50.476562 181.726562 C 51.148438 180.824219 51.898438 180.523438 52.726562 180.300781 C 53.550781 180.148438 54.601562 180.226562 55.351562 180.523438 C 56.101562 180.898438 56.925781 181.574219 57.300781 182.324219 C 57.75 183.074219 57.976562 184.050781 57.824219 184.875 C 57.601562 185.925781 56.550781 187.574219 55.5 188.023438 C 54.523438 188.550781 52.648438 188.476562 51.675781 187.949219 C 50.625 187.351562 49.726562 185.699219 49.574219 184.648438 C 49.425781 183.75 49.800781 182.773438 50.25 182.101562 C 50.699219 181.425781 51.523438 180.75 52.273438 180.449219 C 53.101562 180.148438 54.148438 180.148438 54.898438 180.375 C 55.726562 180.601562 56.550781 181.273438 57.074219 181.949219 C 57.523438 182.625 57.824219 183.375 57.824219 184.425781 C 57.824219 186.300781 55.800781 189.226562 55.351562 192.074219 C 54.675781 195.523438 55.726562 202.050781 54.976562 204 C 54.675781 204.75 54.300781 205.050781 53.773438 205.351562 C 53.101562 205.800781 51.976562 206.101562 51.074219 206.023438 C 50.25 205.949219 49.273438 205.425781 48.675781 204.75 C 48.148438 204.148438 47.699219 202.199219 47.699219 202.199219 " clip-rule="nonzero"/></clipPath><clipPath id="dfcc44c256"><path d="M 65.277344 141.402344 L 82.070312 141.402344 L 82.070312 157 L 65.277344 157 Z M 65.277344 141.402344 " clip-rule="nonzero"/></clipPath><clipPath id="01c373ddc5"><path d="M 66.449219 150.449219 C 78.300781 141.148438 79.125 141.449219 79.800781 141.824219 C 80.550781 142.199219 81.226562 142.949219 81.601562 143.699219 C 81.976562 144.375 82.050781 145.425781 81.898438 146.25 C 81.75 147 81.226562 147.898438 80.625 148.425781 C 80.023438 148.949219 79.125 149.476562 78.226562 149.398438 C 77.175781 149.398438 75.449219 148.726562 74.773438 147.898438 C 74.101562 147 73.800781 145.199219 74.101562 144.148438 C 74.476562 143.101562 75.75 141.824219 76.875 141.523438 C 77.925781 141.226562 79.726562 141.675781 80.550781 142.273438 C 81.226562 142.800781 81.75 143.699219 81.898438 144.523438 C 82.050781 145.273438 82.125 146.101562 81.675781 147.074219 C 80.550781 149.324219 74.175781 154.351562 71.851562 155.851562 C 70.875 156.523438 70.273438 156.976562 69.375 156.976562 C 68.398438 156.976562 66.824219 156.226562 66.148438 155.476562 C 65.550781 154.875 65.25 153.75 65.324219 152.925781 C 65.398438 152.023438 66.449219 150.449219 66.449219 150.449219 " clip-rule="nonzero"/></clipPath><clipPath id="601530491d"><path d="M 111.773438 131.445312 L 128.855469 131.445312 L 128.855469 140.070312 L 111.773438 140.070312 Z M 111.773438 131.445312 " clip-rule="nonzero"/></clipPath><clipPath id="0f6260e245"><path d="M 115.574219 131.476562 C 128.476562 133.800781 128.851562 135.300781 128.851562 136.351562 C 128.851562 137.25 128.398438 138.074219 127.875 138.675781 C 127.351562 139.273438 126.523438 139.875 125.699219 139.949219 C 124.648438 140.101562 122.925781 139.648438 122.101562 138.898438 C 121.351562 138.148438 120.898438 136.351562 120.976562 135.375 C 121.050781 134.476562 121.648438 133.648438 122.25 133.125 C 122.851562 132.601562 123.675781 132.074219 124.574219 132.074219 C 125.550781 132.074219 127.273438 132.675781 127.949219 133.574219 C 128.699219 134.398438 128.925781 136.199219 128.699219 137.175781 C 128.550781 138.074219 127.875 138.824219 127.273438 139.273438 C 126.601562 139.726562 125.925781 139.949219 124.800781 140.023438 C 122.625 140.25 116.550781 139.574219 114.675781 138.976562 C 113.851562 138.75 113.476562 138.523438 113.023438 138.148438 C 112.574219 137.699219 112.199219 137.25 111.976562 136.648438 C 111.75 135.898438 111.75 134.625 111.976562 133.949219 C 112.199219 133.273438 112.5 132.824219 113.023438 132.449219 C 113.625 131.925781 115.574219 131.476562 115.574219 131.476562 " clip-rule="nonzero"/></clipPath><clipPath id="69074152b1"><path d="M 136.660156 139.894531 L 154.90625 139.894531 L 154.90625 155.617188 L 136.660156 155.617188 Z M 136.660156 139.894531 " clip-rule="nonzero"/></clipPath><clipPath id="9e20097601"><path d="M 142.5 140.398438 C 155.023438 151.199219 154.726562 152.699219 154.199219 153.675781 C 153.824219 154.425781 153 155.023438 152.25 155.324219 C 151.5 155.625 150.449219 155.699219 149.625 155.398438 C 148.648438 155.023438 147.300781 153.824219 146.925781 152.773438 C 146.550781 151.726562 147 149.925781 147.601562 149.101562 C 148.050781 148.351562 148.949219 147.824219 149.699219 147.601562 C 150.523438 147.449219 151.5 147.375 152.324219 147.824219 C 153.226562 148.273438 154.425781 149.699219 154.726562 150.675781 C 154.949219 151.5 154.800781 152.550781 154.425781 153.226562 C 154.050781 153.976562 153.449219 154.800781 152.625 155.101562 C 151.648438 155.550781 150.375 155.625 148.875 155.101562 C 145.875 153.976562 138.148438 147.300781 137.023438 145.125 C 136.648438 144.375 136.726562 143.925781 136.800781 143.25 C 136.949219 142.5 137.476562 141.449219 138.148438 140.925781 C 138.75 140.324219 139.949219 140.023438 140.699219 139.949219 C 141.375 139.949219 142.5 140.398438 142.5 140.398438 " clip-rule="nonzero"/></clipPath><clipPath id="c3df5d5c5f"><path d="M 191.691406 215.394531 L 205.957031 215.394531 L 205.957031 230.289062 L 191.691406 230.289062 Z M 191.691406 215.394531 " clip-rule="nonzero"/></clipPath><clipPath id="e5cefbe78b"><path d="M 198.601562 216.898438 C 206.023438 225.675781 205.949219 227.101562 205.5 228.074219 C 204.976562 229.050781 203.398438 229.949219 202.351562 230.175781 C 201.523438 230.324219 200.625 230.023438 199.875 229.574219 C 199.199219 229.199219 198.523438 228.449219 198.300781 227.625 C 198 226.648438 198.226562 224.851562 198.675781 223.949219 C 199.125 223.199219 199.949219 222.675781 200.699219 222.449219 C 201.449219 222.226562 202.5 222.226562 203.25 222.449219 C 204 222.675781 204.824219 223.351562 205.273438 224.023438 C 205.726562 224.625 205.949219 225.601562 205.949219 226.425781 C 205.875 227.25 205.5 228.148438 204.976562 228.75 C 204.449219 229.425781 203.625 229.949219 202.800781 230.101562 C 201.75 230.175781 200.398438 229.800781 199.199219 229.050781 C 197.550781 228.074219 195.375 225.300781 194.023438 223.648438 C 193.050781 222.300781 192 221.101562 191.773438 219.898438 C 191.625 219 191.773438 217.949219 192.300781 217.273438 C 192.898438 216.449219 194.324219 215.476562 195.375 215.398438 C 196.425781 215.398438 198.601562 216.898438 198.601562 216.898438 " clip-rule="nonzero"/></clipPath><clipPath id="7f1e7422d4"><path d="M 220.730469 236.914062 L 242.410156 236.914062 L 242.410156 248.539062 L 220.730469 248.539062 Z M 220.730469 236.914062 " clip-rule="nonzero"/></clipPath><clipPath id="50a69a0cba"><path d="M 225.824219 236.925781 C 234.976562 240.148438 239.175781 240.074219 240.675781 241.125 C 241.574219 241.648438 241.949219 242.398438 242.175781 243.226562 C 242.324219 244.273438 241.949219 246.074219 241.351562 246.976562 C 240.824219 247.648438 239.925781 248.101562 239.101562 248.324219 C 238.273438 248.476562 237.300781 248.476562 236.550781 248.023438 C 235.648438 247.5 234.449219 246.074219 234.226562 245.023438 C 234.074219 243.898438 234.675781 242.175781 235.425781 241.425781 C 236.25 240.601562 238.050781 240.148438 239.101562 240.375 C 240.226562 240.601562 241.5 241.875 242.023438 242.851562 C 242.398438 243.601562 242.476562 244.574219 242.175781 245.398438 C 241.800781 246.375 240.75 247.648438 239.550781 248.175781 C 238.050781 248.773438 235.351562 248.324219 233.550781 248.023438 C 232.050781 247.726562 231.074219 247.273438 229.574219 246.75 C 227.550781 246 224.023438 244.949219 222.601562 243.824219 C 221.699219 243.148438 221.175781 242.398438 220.949219 241.648438 C 220.726562 241.050781 220.726562 240.449219 220.875 239.851562 C 221.101562 239.101562 221.625 238.050781 222.300781 237.523438 C 223.199219 237 225.824219 236.925781 225.824219 236.925781 " clip-rule="nonzero"/></clipPath><clipPath id="dafe727e7e"><path d="M 269.578125 225.25 L 282.191406 225.25 L 282.191406 236.457031 L 269.578125 236.457031 Z M 269.578125 225.25 " clip-rule="nonzero"/></clipPath><clipPath id="ed739ddcaf"><path d="M 271.351562 229.425781 C 278.625 225.148438 280.050781 225.675781 280.875 226.273438 C 281.476562 226.800781 281.925781 227.699219 282.074219 228.449219 C 282.226562 229.199219 282.148438 230.175781 281.699219 230.851562 C 281.175781 231.75 279.824219 232.875 278.699219 232.949219 C 277.648438 233.101562 276.074219 232.5 275.324219 231.675781 C 274.648438 230.925781 274.351562 229.199219 274.5 228.148438 C 274.648438 227.324219 275.25 226.574219 275.851562 226.125 C 276.449219 225.601562 277.351562 225.300781 278.175781 225.300781 C 278.925781 225.226562 279.898438 225.523438 280.5 225.976562 C 281.175781 226.5 281.773438 227.25 281.925781 228 C 282.148438 228.976562 281.851562 230.550781 281.25 231.601562 C 280.5 232.800781 278.699219 233.773438 277.425781 234.601562 C 276.226562 235.351562 274.949219 236.25 273.824219 236.398438 C 272.925781 236.476562 271.875 236.25 271.199219 235.726562 C 270.449219 235.050781 269.625 233.550781 269.625 232.574219 C 269.625 231.523438 271.351562 229.425781 271.351562 229.425781 " clip-rule="nonzero"/></clipPath><clipPath id="336d88b736"><path d="M 292.261719 199.347656 L 302.945312 199.347656 L 302.945312 212.621094 L 292.261719 212.621094 Z M 292.261719 199.347656 " clip-rule="nonzero"/></clipPath><clipPath id="abec100654"><path d="M 292.800781 207 C 297.300781 199.648438 297.523438 199.574219 298.050781 199.5 C 298.648438 199.351562 299.773438 199.351562 300.523438 199.648438 C 301.273438 199.949219 302.023438 200.625 302.398438 201.300781 C 302.773438 201.976562 303 202.949219 302.925781 203.699219 C 302.851562 204.523438 302.398438 205.425781 301.875 205.949219 C 301.273438 206.550781 300.375 207 299.625 207.148438 C 298.875 207.226562 297.898438 207.148438 297.148438 206.699219 C 296.324219 206.175781 295.273438 204.75 295.125 203.625 C 295.050781 202.574219 295.726562 200.925781 296.550781 200.25 C 297.375 199.574219 299.101562 199.351562 300.148438 199.5 C 300.976562 199.648438 301.726562 200.324219 302.175781 200.925781 C 302.625 201.601562 303 202.351562 302.925781 203.324219 C 302.851562 204.898438 301.125 207.75 300.226562 209.324219 C 299.550781 210.449219 299.101562 211.574219 298.199219 212.023438 C 297.226562 212.550781 295.648438 212.773438 294.675781 212.398438 C 293.699219 212.023438 292.648438 210.675781 292.351562 209.699219 C 292.125 208.875 292.800781 207 292.800781 207 " clip-rule="nonzero"/></clipPath><clipPath id="fbf58fd57d"><path d="M 299.441406 169.335938 L 307.890625 169.335938 L 307.890625 190.261719 L 299.441406 190.261719 Z M 299.441406 169.335938 " clip-rule="nonzero"/></clipPath><clipPath id="a3d9132b50"><path d="M 299.476562 186.449219 C 299.398438 174.074219 299.476562 172.351562 300.148438 171.300781 C 300.601562 170.476562 301.351562 169.949219 302.101562 169.648438 C 302.851562 169.351562 303.898438 169.273438 304.726562 169.5 C 305.476562 169.726562 306.300781 170.324219 306.824219 171 C 307.273438 171.675781 307.648438 172.574219 307.574219 173.476562 C 307.5 174.523438 306.75 176.175781 305.773438 176.773438 C 304.875 177.375 303 177.449219 302.023438 177.148438 C 301.199219 176.851562 300.449219 176.25 300.074219 175.425781 C 299.625 174.523438 299.550781 172.648438 299.925781 171.675781 C 300.226562 170.851562 300.976562 170.175781 301.726562 169.800781 C 302.476562 169.425781 303.449219 169.273438 304.273438 169.425781 C 305.101562 169.574219 306 170.101562 306.523438 170.699219 C 307.050781 171.300781 307.351562 171.824219 307.574219 173.023438 C 308.101562 175.875 307.949219 185.773438 306.675781 188.25 C 306.148438 189.300781 305.476562 189.75 304.648438 190.050781 C 303.898438 190.351562 302.699219 190.273438 301.949219 190.050781 C 301.351562 189.898438 300.824219 189.523438 300.449219 189 C 299.925781 188.398438 299.476562 186.449219 299.476562 186.449219 " clip-rule="nonzero"/></clipPath><clipPath id="eb317492c4"><path d="M 299.476562 135.65625 L 309.164062 135.65625 L 309.164062 150.828125 L 299.476562 150.828125 Z M 299.476562 135.65625 " clip-rule="nonzero"/></clipPath><clipPath id="e559d44001"><path d="M 299.550781 146.398438 C 302.175781 136.800781 302.699219 136.273438 303.449219 135.976562 C 304.425781 135.601562 306.226562 135.675781 307.125 136.125 C 307.949219 136.5 308.476562 137.324219 308.773438 138 C 309.074219 138.75 309.226562 139.726562 309 140.550781 C 308.625 141.523438 307.5 142.875 306.449219 143.25 C 305.476562 143.625 303.675781 143.324219 302.851562 142.726562 C 301.949219 142.050781 301.199219 140.476562 301.199219 139.351562 C 301.273438 138.300781 302.175781 136.726562 303.074219 136.199219 C 304.050781 135.601562 305.773438 135.601562 306.75 135.976562 C 307.574219 136.199219 308.25 136.949219 308.625 137.625 C 309 138.375 309.074219 139.050781 309.074219 140.101562 C 309 142.125 307.574219 146.925781 306.824219 148.5 C 306.449219 149.25 306.226562 149.625 305.699219 150 C 305.101562 150.449219 303.898438 150.824219 303.148438 150.824219 C 302.476562 150.824219 301.875 150.675781 301.351562 150.300781 C 300.75 149.851562 299.925781 148.949219 299.699219 148.199219 C 299.398438 147.601562 299.550781 146.398438 299.550781 146.398438 " clip-rule="nonzero"/></clipPath><clipPath id="e2103ae528"><path d="M 302.261719 248.847656 L 322.140625 248.847656 L 322.140625 265.160156 L 302.261719 265.160156 Z M 302.261719 248.847656 " clip-rule="nonzero"/></clipPath><clipPath id="17703935ae"><path d="M 318.636719 257.476562 C 311.8125 258.226562 312.261719 253.5 312.5625 253.425781 C 312.789062 253.351562 314.136719 255.75 313.988281 256.875 C 313.914062 258.148438 312.1875 260.625 311.8125 260.550781 C 311.289062 260.324219 311.511719 254.101562 312.113281 252.375 C 312.414062 251.476562 312.789062 250.949219 313.460938 250.574219 C 314.210938 250.199219 315.636719 250.050781 316.539062 250.351562 C 317.4375 250.648438 318.488281 251.398438 319.011719 252.226562 C 319.539062 253.050781 319.6875 254.398438 319.613281 255.300781 C 319.539062 256.050781 319.3125 256.726562 318.710938 257.175781 C 317.8125 258 313.386719 258.523438 313.386719 258.523438 C 313.386719 258.523438 317.289062 257.175781 317.585938 257.550781 C 317.8125 257.925781 316.011719 259.949219 314.738281 261 C 313.164062 262.351562 309.863281 264.226562 308.289062 264.75 C 307.460938 265.050781 306.9375 265.125 306.1875 265.050781 C 305.289062 264.824219 304.011719 264.300781 303.414062 263.550781 C 302.738281 262.800781 302.363281 261.523438 302.289062 260.625 C 302.210938 259.875 302.511719 259.125 302.8125 258.523438 C 303.113281 257.925781 303.488281 257.25 304.238281 256.949219 C 305.289062 256.5 309.1875 256.949219 309.1875 257.023438 C 309.1875 257.175781 304.914062 257.851562 304.835938 257.550781 C 304.6875 257.25 307.835938 256.199219 308.4375 255.226562 C 308.8125 254.550781 308.289062 253.574219 308.585938 252.824219 C 308.960938 252 309.636719 251.023438 310.386719 250.574219 C 311.136719 250.050781 312.261719 249.824219 313.164062 249.824219 C 314.0625 249.898438 315.113281 250.351562 315.789062 250.949219 C 316.460938 251.550781 317.0625 252.601562 317.210938 253.5 C 317.4375 254.324219 317.363281 255.449219 316.835938 256.273438 C 316.238281 257.324219 314.664062 258.601562 313.460938 258.75 C 312.261719 258.976562 310.3125 258.300781 309.488281 257.324219 C 308.664062 256.425781 308.210938 254.476562 308.511719 253.273438 C 308.738281 252.074219 310.238281 250.648438 311.289062 250.125 C 312.113281 249.75 313.238281 249.75 314.136719 250.050781 C 315.039062 250.273438 315.9375 250.949219 316.460938 251.699219 C 316.988281 252.449219 317.289062 253.425781 317.289062 254.398438 C 317.363281 255.601562 316.988281 257.175781 316.386719 258.375 C 315.789062 259.726562 314.664062 261.074219 313.460938 262.050781 C 312.335938 263.023438 310.835938 264 309.335938 264.375 C 307.835938 264.75 304.386719 264.300781 304.386719 264.226562 C 304.386719 264.226562 309.1875 264.074219 309.261719 264.300781 C 309.261719 264.449219 307.164062 265.125 306.1875 265.050781 C 305.210938 264.898438 304.011719 264.148438 303.414062 263.550781 C 302.886719 263.023438 302.511719 262.351562 302.4375 261.675781 C 302.210938 260.773438 302.210938 259.5 302.8125 258.523438 C 303.789062 256.949219 307.6875 255.675781 309.335938 254.175781 C 310.613281 253.125 311.0625 251.398438 312.1875 250.800781 C 313.164062 250.199219 314.4375 250.050781 315.488281 250.199219 C 316.539062 250.273438 317.664062 250.726562 318.335938 251.398438 C 319.011719 252.074219 319.539062 253.273438 319.613281 254.25 C 319.6875 255.226562 319.386719 256.199219 318.710938 257.175781 C 317.8125 258.75 315.414062 260.925781 313.6875 261.898438 C 312.335938 262.648438 310.835938 263.25 309.488281 263.023438 C 308.210938 262.875 306.5625 261.976562 305.886719 260.851562 C 305.210938 259.5 305.511719 256.648438 306.113281 255.074219 C 306.636719 253.648438 307.835938 252.523438 308.960938 251.550781 C 309.9375 250.648438 311.0625 249.675781 312.335938 249.300781 C 313.761719 248.851562 316.085938 248.625 317.136719 249.449219 C 318.335938 250.273438 319.164062 253.351562 318.789062 254.773438 C 318.5625 255.976562 317.363281 256.726562 316.238281 257.550781 C 314.886719 258.523438 312.636719 260.101562 311.0625 260.175781 C 309.789062 260.25 308.136719 259.726562 307.539062 258.75 C 306.863281 257.550781 307.011719 254.398438 308.0625 252.976562 C 309.414062 251.324219 313.835938 250.425781 316.011719 250.050781 C 317.4375 249.824219 318.636719 249.675781 319.6875 250.125 C 320.664062 250.648438 321.710938 251.925781 321.9375 252.898438 C 322.238281 253.726562 322.011719 254.773438 321.5625 255.523438 C 321.039062 256.425781 318.636719 257.476562 318.636719 257.476562 " clip-rule="nonzero"/></clipPath><clipPath id="69d75f9e35"><path d="M 250 138 L 286 138 L 286 172 L 250 172 Z M 250 138 " clip-rule="nonzero"/></clipPath><clipPath id="9073f37b66"><path d="M 262.269531 138.449219 L 285.074219 151.898438 L 273.566406 171.410156 L 250.761719 157.960938 Z M 262.269531 138.449219 " clip-rule="nonzero"/></clipPath><clipPath id="94526d044b"><path d="M 232 121 L 290 121 L 290 174 L 232 174 Z M 232 121 " clip-rule="nonzero"/></clipPath><clipPath id="bc3311ede7"><path d="M 250.761719 117.074219 L 291.761719 140.558594 L 272.753906 173.75 L 231.75 150.265625 Z M 250.761719 117.074219 " clip-rule="nonzero"/></clipPath><clipPath id="7342dfeeff"><path d="M 250.761719 117.074219 L 291.761719 140.558594 L 272.753906 173.75 L 231.75 150.265625 Z M 250.761719 117.074219 " clip-rule="nonzero"/></clipPath><clipPath id="4fcc2d1719"><path d="M 247 124 L 256 124 L 256 135 L 247 135 Z M 247 124 " clip-rule="nonzero"/></clipPath><clipPath id="9152154980"><path d="M 250.761719 117.074219 L 291.761719 140.558594 L 272.753906 173.75 L 231.75 150.265625 Z M 250.761719 117.074219 " clip-rule="nonzero"/></clipPath><clipPath id="fb201f4aff"><path d="M 250.761719 117.074219 L 291.761719 140.558594 L 272.753906 173.75 L 231.75 150.265625 Z M 250.761719 117.074219 " clip-rule="nonzero"/></clipPath><clipPath id="33484bf008"><path d="M 249 126 L 254 126 L 254 131 L 249 131 Z M 249 126 " clip-rule="nonzero"/></clipPath><clipPath id="fce40d5831"><path d="M 250.761719 117.074219 L 291.761719 140.558594 L 272.753906 173.75 L 231.75 150.265625 Z M 250.761719 117.074219 " clip-rule="nonzero"/></clipPath><clipPath id="0e853b49b9"><path d="M 250.761719 117.074219 L 291.761719 140.558594 L 272.753906 173.75 L 231.75 150.265625 Z M 250.761719 117.074219 " clip-rule="nonzero"/></clipPath><clipPath id="6b9320ebd9"><path d="M 235 136 L 251 136 L 251 150 L 235 150 Z M 235 136 " clip-rule="nonzero"/></clipPath><clipPath id="532c65b044"><path d="M 250.761719 117.074219 L 291.761719 140.558594 L 272.753906 173.75 L 231.75 150.265625 Z M 250.761719 117.074219 " clip-rule="nonzero"/></clipPath><clipPath id="3d7a900422"><path d="M 250.761719 117.074219 L 291.761719 140.558594 L 272.753906 173.75 L 231.75 150.265625 Z M 250.761719 117.074219 " clip-rule="nonzero"/></clipPath><clipPath id="e16615adc6"><path d="M 249 150 L 254 150 L 254 154 L 249 154 Z M 249 150 " clip-rule="nonzero"/></clipPath><clipPath id="341c299549"><path d="M 250.761719 117.074219 L 291.761719 140.558594 L 272.753906 173.75 L 231.75 150.265625 Z M 250.761719 117.074219 " clip-rule="nonzero"/></clipPath><clipPath id="f3dc922860"><path d="M 250.761719 117.074219 L 291.761719 140.558594 L 272.753906 173.75 L 231.75 150.265625 Z M 250.761719 117.074219 " clip-rule="nonzero"/></clipPath><clipPath id="c4287d6453"><path d="M 271 138 L 275 138 L 275 142 L 271 142 Z M 271 138 " clip-rule="nonzero"/></clipPath><clipPath id="9b27d7bd62"><path d="M 250.761719 117.074219 L 291.761719 140.558594 L 272.753906 173.75 L 231.75 150.265625 Z M 250.761719 117.074219 " clip-rule="nonzero"/></clipPath><clipPath id="0d8f3369f2"><path d="M 250.761719 117.074219 L 291.761719 140.558594 L 272.753906 173.75 L 231.75 150.265625 Z M 250.761719 117.074219 " clip-rule="nonzero"/></clipPath><clipPath id="a03f74026d"><path d="M 265 139 L 270 139 L 270 143 L 265 143 Z M 265 139 " clip-rule="nonzero"/></clipPath><clipPath id="31ad0776c9"><path d="M 250.761719 117.074219 L 291.761719 140.558594 L 272.753906 173.75 L 231.75 150.265625 Z M 250.761719 117.074219 " clip-rule="nonzero"/></clipPath><clipPath id="04256d85c7"><path d="M 250.761719 117.074219 L 291.761719 140.558594 L 272.753906 173.75 L 231.75 150.265625 Z M 250.761719 117.074219 " clip-rule="nonzero"/></clipPath><clipPath id="3dcd66da3b"><path d="M 73.648438 196.5 L 100.6875 196.5 L 100.6875 223.75 L 73.648438 223.75 Z M 73.648438 196.5 " clip-rule="nonzero"/></clipPath><clipPath id="abcfa8467d"><path d="M 87.167969 196.5 C 79.703125 196.5 73.648438 202.585938 73.648438 210.09375 C 73.648438 217.601562 79.703125 223.6875 87.167969 223.6875 C 94.636719 223.6875 100.6875 217.601562 100.6875 210.09375 C 100.6875 202.585938 94.636719 196.5 87.167969 196.5 Z M 87.167969 196.5 " clip-rule="nonzero"/></clipPath><clipPath id="4d97e208cc"><path d="M 73 196 L 101 196 L 101 223 L 73 223 Z M 73 196 " clip-rule="nonzero"/></clipPath><clipPath id="2c97815cb8"><path d="M 70.949219 200.039062 L 109.472656 190.242188 L 119.269531 228.769531 L 80.746094 238.5625 Z M 70.949219 200.039062 " clip-rule="nonzero"/></clipPath><clipPath id="c785f8319c"><path d="M 70.949219 200.039062 L 109.472656 190.242188 L 119.269531 228.769531 L 80.746094 238.5625 Z M 70.949219 200.039062 " clip-rule="nonzero"/></clipPath><clipPath id="a160871faf"><path d="M 98 214 L 104 214 L 104 222 L 98 222 Z M 98 214 " clip-rule="nonzero"/></clipPath><clipPath id="3ed23d7b75"><path d="M 70.949219 200.039062 L 109.472656 190.242188 L 119.269531 228.769531 L 80.746094 238.5625 Z M 70.949219 200.039062 " clip-rule="nonzero"/></clipPath><clipPath id="3253c2cb11"><path d="M 70.949219 200.039062 L 109.472656 190.242188 L 119.269531 228.769531 L 80.746094 238.5625 Z M 70.949219 200.039062 " clip-rule="nonzero"/></clipPath><clipPath id="61c9cc768d"><path d="M 103 218 L 119 218 L 119 230 L 103 230 Z M 103 218 " clip-rule="nonzero"/></clipPath><clipPath id="7bea9292f6"><path d="M 70.949219 200.039062 L 109.472656 190.242188 L 119.269531 228.769531 L 80.746094 238.5625 Z M 70.949219 200.039062 " clip-rule="nonzero"/></clipPath><clipPath id="e58985dc4d"><path d="M 70.949219 200.039062 L 109.472656 190.242188 L 119.269531 228.769531 L 80.746094 238.5625 Z M 70.949219 200.039062 " clip-rule="nonzero"/></clipPath><clipPath id="1eb9c7daff"><path d="M 77 206 L 93 206 L 93 220 L 77 220 Z M 77 206 " clip-rule="nonzero"/></clipPath><clipPath id="7740ed218b"><path d="M 70.949219 200.039062 L 109.472656 190.242188 L 119.269531 228.769531 L 80.746094 238.5625 Z M 70.949219 200.039062 " clip-rule="nonzero"/></clipPath><clipPath id="fcb1df4a82"><path d="M 70.949219 200.039062 L 109.472656 190.242188 L 119.269531 228.769531 L 80.746094 238.5625 Z M 70.949219 200.039062 " clip-rule="nonzero"/></clipPath></defs><g fill="#072422" fill-opacity="1"><g transform="translate(85.097963, 212.804949)"><g><path d="M 33.6875 -40.53125 C 33.71875 -40.132812 33.550781 -39.28125 33.1875 -37.96875 L 31.890625 -28.265625 C 31.296875 -23.628906 30.976562 -20.851562 30.9375 -19.9375 C 30.738281 -14.664062 30.5 -11.117188 30.21875 -9.296875 C 29.882812 -6.984375 29.375 -5.15625 28.6875 -3.8125 C 28 -2.476562 26.875 -1.757812 25.3125 -1.65625 C 24.320312 -1.59375 23.445312 -2.289062 22.6875 -3.75 C 22.476562 -4.175781 22.050781 -5.414062 21.40625 -7.46875 C 20.757812 -9.519531 20.425781 -10.710938 20.40625 -11.046875 C 20.101562 -8.078125 19.609375 -5.734375 18.921875 -4.015625 C 18.234375 -2.304688 17.15625 -1.410156 15.6875 -1.328125 C 14.476562 -1.242188 13.5 -1.53125 12.75 -2.1875 C 12.613281 -2.132812 12.378906 -2.097656 12.046875 -2.078125 C 10.734375 -1.992188 9.726562 -2.46875 9.03125 -3.5 C 7.207031 -6.207031 5.550781 -10.617188 4.0625 -16.734375 C 1.976562 -24.859375 0.753906 -31.816406 0.390625 -37.609375 C 0.328125 -38.523438 0.601562 -39.332031 1.21875 -40.03125 C 1.832031 -40.726562 2.613281 -41.109375 3.5625 -41.171875 C 4.300781 -41.210938 5.035156 -41.003906 5.765625 -40.546875 C 6.253906 -40.941406 6.847656 -41.160156 7.546875 -41.203125 C 8.492188 -41.265625 9.316406 -40.988281 10.015625 -40.375 C 10.710938 -39.757812 11.085938 -38.992188 11.140625 -38.078125 L 11.1875 -37.40625 C 11.195312 -37.332031 11.269531 -36.753906 11.40625 -35.671875 C 11.488281 -34.929688 11.769531 -33.695312 12.25 -31.96875 C 12.59375 -30.625 12.863281 -29.378906 13.0625 -28.234375 C 13.269531 -27.097656 13.472656 -25.828125 13.671875 -24.421875 C 13.867188 -23.015625 14.050781 -21.894531 14.21875 -21.0625 L 14.75 -21.203125 C 14.800781 -21.609375 14.804688 -22.675781 14.765625 -24.40625 C 14.734375 -26.132812 14.726562 -27.09375 14.75 -27.28125 C 14.8125 -27.582031 14.859375 -27.894531 14.890625 -28.21875 C 14.921875 -28.539062 14.9375 -28.722656 14.9375 -28.765625 C 14.894531 -29.347656 15.019531 -30.625 15.3125 -32.59375 C 15.394531 -34 16.023438 -34.738281 17.203125 -34.8125 C 17.847656 -34.851562 18.4375 -34.78125 18.96875 -34.59375 C 19.5 -34.40625 20.5625 -33.941406 22.15625 -33.203125 C 22.164062 -33.085938 22.359375 -32.378906 22.734375 -31.078125 C 22.921875 -30.421875 23.210938 -28.835938 23.609375 -26.328125 C 24.003906 -23.828125 24.273438 -22.304688 24.421875 -21.765625 L 25.03125 -21.6875 C 24.726562 -26.414062 24.929688 -30.382812 25.640625 -33.59375 L 26.4375 -38.421875 L 26.4375 -38.46875 C 26.726562 -40.1875 27.128906 -41.476562 27.640625 -42.34375 C 28.160156 -43.207031 28.988281 -43.675781 30.125 -43.75 C 31.113281 -43.8125 31.941406 -43.519531 32.609375 -42.875 C 33.273438 -42.226562 33.632812 -41.445312 33.6875 -40.53125 Z M 33.6875 -40.53125 "/></g></g></g><g fill="#072422" fill-opacity="1"><g transform="translate(123.957595, 210.348673)"><g><path d="M 12.234375 -1.546875 C 13.003906 -1.078125 13.992188 -0.882812 15.203125 -0.96875 C 17.953125 -1.132812 19.988281 -2.476562 21.3125 -5 C 22.632812 -7.53125 23.203125 -10.921875 23.015625 -15.171875 C 23.054688 -17.972656 23.03125 -20.101562 22.9375 -21.5625 C 22.863281 -22.769531 22.796875 -23.554688 22.734375 -23.921875 C 22.398438 -26.253906 21.21875 -28.097656 19.1875 -29.453125 C 17.15625 -30.816406 14.820312 -31.414062 12.1875 -31.25 C 8.3125 -31.007812 5.800781 -29.476562 4.65625 -26.65625 C 3.789062 -25.082031 3.066406 -23.25 2.484375 -21.15625 C 1.910156 -19.0625 1.664062 -17.335938 1.75 -15.984375 C 1.976562 -12.359375 3.316406 -8.914062 5.765625 -5.65625 C 6.410156 -4.59375 7.394531 -3.609375 8.71875 -2.703125 C 10.050781 -1.796875 11.222656 -1.410156 12.234375 -1.546875 Z M 12.953125 -24.453125 C 14.265625 -24.535156 15.285156 -24.066406 16.015625 -23.046875 C 16.078125 -22.648438 16.175781 -21.394531 16.3125 -19.28125 C 16.644531 -13.976562 16.304688 -10.300781 15.296875 -8.25 C 13.648438 -9.28125 12.6875 -10.863281 12.40625 -13 C 12.207031 -14.988281 12.054688 -16.769531 11.953125 -18.34375 C 11.679688 -22.582031 11.953125 -24.65625 12.765625 -24.5625 C 12.890625 -24.488281 12.953125 -24.453125 12.953125 -24.453125 Z M 12.953125 -24.453125 "/></g></g></g><g fill="#072422" fill-opacity="1"><g transform="translate(150.906857, 208.64524)"><g><path d="M 22.09375 -7.125 C 22.882812 -5.75 23.3125 -4.765625 23.375 -4.171875 C 23.457031 -2.816406 22.929688 -1.773438 21.796875 -1.046875 C 21.347656 -0.753906 20.828125 -0.59375 20.234375 -0.5625 C 20.015625 -0.539062 19.722656 -0.554688 19.359375 -0.609375 C 18.859375 -0.503906 18.210938 -0.609375 17.421875 -0.921875 C 16.492188 -0.941406 15.742188 -1.140625 15.171875 -1.515625 L 14.828125 -1.703125 C 14.222656 -2.003906 13.75 -2.457031 13.40625 -3.0625 C 13.0625 -3.363281 12.789062 -3.640625 12.59375 -3.890625 C 12.46875 -4.097656 12.289062 -4.382812 12.0625 -4.75 C 11.84375 -5.125 11.648438 -5.460938 11.484375 -5.765625 C 11.328125 -6.066406 11.164062 -6.359375 11 -6.640625 C 10.601562 -5.835938 10.3125 -5.15625 10.125 -4.59375 C 9.632812 -3.550781 9.375 -3.003906 9.34375 -2.953125 L 8.859375 -2.046875 C 8.222656 -1.015625 7.316406 -0.460938 6.140625 -0.390625 C 5.191406 -0.328125 4.367188 -0.613281 3.671875 -1.25 C 2.972656 -1.882812 2.59375 -2.660156 2.53125 -3.578125 C 2.488281 -4.191406 2.65625 -4.804688 3.03125 -5.421875 C 4.78125 -9.441406 6.070312 -12.128906 6.90625 -13.484375 L 6.90625 -13.546875 C 3.238281 -19.898438 1.378906 -23.535156 1.328125 -24.453125 C 1.253906 -25.515625 1.578125 -26.394531 2.296875 -27.09375 C 2.222656 -27.3125 2.175781 -27.617188 2.15625 -28.015625 C 2.09375 -28.898438 2.359375 -29.703125 2.953125 -30.421875 C 3.546875 -31.140625 4.335938 -31.53125 5.328125 -31.59375 C 5.878906 -31.625 6.457031 -31.5 7.0625 -31.21875 C 7.675781 -30.945312 8.125 -30.582031 8.40625 -30.125 C 9.644531 -30.195312 10.617188 -29.539062 11.328125 -28.15625 L 12.265625 -24.921875 C 12.347656 -24.734375 12.40625 -24.601562 12.4375 -24.53125 L 12.84375 -23.46875 C 13.394531 -24.644531 13.75 -25.476562 13.90625 -25.96875 C 14.457031 -27.71875 15.050781 -29.035156 15.6875 -29.921875 C 16.332031 -30.804688 17.195312 -31.285156 18.28125 -31.359375 C 19.195312 -31.410156 19.988281 -31.125 20.65625 -30.5 C 21.320312 -29.882812 21.707031 -29.109375 21.8125 -28.171875 C 21.820312 -27.429688 21.539062 -26.601562 20.96875 -25.6875 L 20.3125 -23.828125 L 16.328125 -16.46875 C 17.234375 -14.832031 18.21875 -13.148438 19.28125 -11.421875 C 19.28125 -11.390625 19.390625 -11.210938 19.609375 -10.890625 C 19.828125 -10.566406 20.078125 -10.203125 20.359375 -9.796875 C 20.648438 -9.390625 20.9375 -8.972656 21.21875 -8.546875 C 21.507812 -8.128906 21.734375 -7.785156 21.890625 -7.515625 C 22.054688 -7.253906 22.125 -7.125 22.09375 -7.125 Z M 22.09375 -7.125 "/></g></g></g><g fill="#072422" fill-opacity="1"><g transform="translate(177.197475, 206.983438)"><g><path d="M 19.9375 -28.09375 C 21.414062 -27.382812 22.460938 -26.625 23.078125 -25.8125 C 23.703125 -25.007812 24.226562 -23.546875 24.65625 -21.421875 C 25.09375 -19.304688 25.457031 -15.925781 25.75 -11.28125 C 25.789062 -10.695312 25.84375 -9.675781 25.90625 -8.21875 C 25.976562 -6.769531 26.039062 -5.628906 26.09375 -4.796875 C 26.15625 -3.835938 25.882812 -3.007812 25.28125 -2.3125 C 24.6875 -1.613281 23.910156 -1.234375 22.953125 -1.171875 C 21.960938 -1.109375 21.023438 -1.390625 20.140625 -2.015625 C 19.265625 -2.648438 18.816406 -3.425781 18.796875 -4.34375 L 18.171875 -17.796875 C 18.128906 -19.046875 17.613281 -20.015625 16.625 -20.703125 C 15.644531 -21.390625 14.421875 -21.6875 12.953125 -21.59375 C 12.703125 -21.570312 12.285156 -21.507812 11.703125 -21.40625 C 11.796875 -12.34375 11.890625 -7.054688 11.984375 -5.546875 L 12.109375 -3.46875 C 12.171875 -2.550781 11.882812 -1.742188 11.25 -1.046875 C 10.625 -0.347656 9.851562 0.03125 8.9375 0.09375 C 8.164062 0.144531 7.460938 -0.046875 6.828125 -0.484375 C 6.191406 -0.921875 5.757812 -1.503906 5.53125 -2.234375 C 4.6875 -2.328125 3.96875 -2.660156 3.375 -3.234375 C 2.789062 -3.816406 2.472656 -4.53125 2.421875 -5.375 C 2.398438 -5.707031 2.390625 -6.148438 2.390625 -6.703125 C 2.390625 -7.265625 2.398438 -7.765625 2.421875 -8.203125 L 2.421875 -8.8125 L 1.84375 -17.921875 C 1.769531 -19.117188 1.753906 -21.929688 1.796875 -26.359375 C 1.835938 -30.796875 1.925781 -34.050781 2.0625 -36.125 C 2.15625 -36.925781 2.503906 -37.625 3.109375 -38.21875 C 3.710938 -38.8125 4.4375 -39.132812 5.28125 -39.1875 C 5.757812 -39.21875 6.226562 -39.132812 6.6875 -38.9375 C 7.007812 -39.070312 7.460938 -39.15625 8.046875 -39.1875 C 10.054688 -39.289062 11.144531 -38.082031 11.3125 -35.5625 L 11.578125 -29.4375 C 12.859375 -29.625 14.300781 -29.578125 15.90625 -29.296875 C 17.519531 -29.015625 18.863281 -28.613281 19.9375 -28.09375 Z M 19.9375 -28.09375 "/></g></g></g><g fill="#072422" fill-opacity="1"><g transform="translate(206.287306, 205.144702)"><g><path d="M 27.6875 -7.46875 C 27.84375 -6.675781 27.929688 -6.082031 27.953125 -5.6875 L 28.015625 -4.640625 C 28.078125 -3.691406 27.8125 -2.863281 27.21875 -2.15625 C 26.625 -1.457031 25.847656 -1.078125 24.890625 -1.015625 C 23.941406 -0.960938 23.113281 -1.242188 22.40625 -1.859375 C 21.707031 -2.484375 21.328125 -3.269531 21.265625 -4.21875 C 21.242188 -4.65625 21.070312 -5.828125 20.75 -7.734375 C 20.425781 -9.640625 20.226562 -10.90625 20.15625 -11.53125 C 18.863281 -8.207031 17.484375 -5.597656 16.015625 -3.703125 C 14.554688 -1.816406 12.710938 -0.800781 10.484375 -0.65625 C 7.585938 -0.476562 5.488281 -1.660156 4.1875 -4.203125 C 2.894531 -6.742188 2.085938 -10.597656 1.765625 -15.765625 C 1.660156 -17.410156 1.664062 -19.503906 1.78125 -22.046875 C 1.894531 -24.585938 1.925781 -26.28125 1.875 -27.125 C 1.8125 -28.132812 1.96875 -28.929688 2.34375 -29.515625 C 2.726562 -30.097656 3.269531 -30.410156 3.96875 -30.453125 C 4.257812 -30.472656 4.570312 -30.4375 4.90625 -30.34375 C 5.5625 -31.007812 6.3125 -31.367188 7.15625 -31.421875 C 8.070312 -31.472656 8.878906 -31.179688 9.578125 -30.546875 C 10.273438 -29.910156 10.65625 -29.132812 10.71875 -28.21875 C 11.039062 -23.132812 11.675781 -17.148438 12.625 -10.265625 C 14.457031 -12.210938 15.90625 -14.882812 16.96875 -18.28125 C 18.03125 -21.6875 18.457031 -25.070312 18.25 -28.4375 C 18.195312 -29.34375 18.488281 -30.144531 19.125 -30.84375 C 19.769531 -31.550781 20.550781 -31.929688 21.46875 -31.984375 C 22.382812 -32.046875 23.191406 -31.765625 23.890625 -31.140625 C 24.585938 -30.523438 24.960938 -29.765625 25.015625 -28.859375 L 25.0625 -28.09375 C 25.71875 -25.113281 26.113281 -22.585938 26.25 -20.515625 C 26.488281 -16.804688 26.65625 -14.53125 26.75 -13.6875 C 26.914062 -11.539062 27.226562 -9.46875 27.6875 -7.46875 Z M 27.6875 -7.46875 "/></g></g></g><g fill="#072422" fill-opacity="1"><g transform="translate(237.243285, 203.188008)"><g><path d="M 26.078125 -18.25 C 26.148438 -17.582031 26.238281 -16.425781 26.34375 -14.78125 C 26.539062 -11.707031 26.675781 -8.410156 26.75 -4.890625 C 26.78125 -3.972656 26.460938 -3.1875 25.796875 -2.53125 C 25.140625 -1.882812 24.410156 -1.539062 23.609375 -1.5 C 22.546875 -1.425781 21.664062 -1.722656 20.96875 -2.390625 C 20.28125 -3.066406 19.941406 -3.90625 19.953125 -4.90625 C 19.929688 -7.65625 19.820312 -10.546875 19.625 -13.578125 C 19.445312 -16.367188 19.222656 -18.347656 18.953125 -19.515625 C 18.679688 -20.691406 18.222656 -21.476562 17.578125 -21.875 C 15.816406 -20.664062 13.910156 -18.546875 11.859375 -15.515625 C 12.398438 -11.472656 12.675781 -9.394531 12.6875 -9.28125 C 12.695312 -9.019531 12.707031 -8.695312 12.71875 -8.3125 C 12.726562 -7.9375 12.742188 -7.398438 12.765625 -6.703125 C 12.785156 -6.003906 12.820312 -5.3125 12.875 -4.625 L 12.46875 -1.515625 C 11.78125 -0.285156 10.828125 0.363281 9.609375 0.4375 C 8.546875 0.507812 7.601562 0.257812 6.78125 -0.3125 C 5.957031 -0.894531 5.378906 -1.6875 5.046875 -2.6875 C 5.003906 -2.90625 4.972656 -3.023438 4.953125 -3.046875 C 4.929688 -3.066406 4.910156 -3.117188 4.890625 -3.203125 C 4.867188 -3.296875 4.832031 -3.394531 4.78125 -3.5 C 4.738281 -3.613281 4.648438 -3.859375 4.515625 -4.234375 C 4.390625 -4.609375 4.234375 -5.082031 4.046875 -5.65625 C 2.703125 -9.582031 1.867188 -14.085938 1.546875 -19.171875 C 1.390625 -21.648438 1.289062 -23.585938 1.25 -24.984375 C 1.21875 -26.609375 1.453125 -27.992188 1.953125 -29.140625 C 2.460938 -30.296875 3.242188 -31.050781 4.296875 -31.40625 C 4.734375 -31.507812 5.039062 -31.566406 5.21875 -31.578125 C 5.65625 -31.609375 6.046875 -31.5625 6.390625 -31.4375 C 6.753906 -31.53125 7.175781 -31.59375 7.65625 -31.625 C 8.570312 -31.675781 9.394531 -31.394531 10.125 -30.78125 C 10.820312 -30.164062 11.195312 -29.398438 11.25 -28.484375 C 11.300781 -27.765625 11.144531 -27.128906 10.78125 -26.578125 C 12.445312 -28.585938 14.390625 -30.070312 16.609375 -31.03125 C 17.628906 -31.09375 18.535156 -31.101562 19.328125 -31.0625 C 20.117188 -31.019531 20.816406 -30.851562 21.421875 -30.5625 C 22.035156 -30.269531 22.550781 -30 22.96875 -29.75 C 23.394531 -29.5 23.765625 -29.046875 24.078125 -28.390625 C 24.398438 -27.734375 24.660156 -27.160156 24.859375 -26.671875 C 25.054688 -26.191406 25.234375 -25.40625 25.390625 -24.3125 C 25.546875 -23.21875 25.664062 -22.304688 25.75 -21.578125 C 25.832031 -20.847656 25.941406 -19.738281 26.078125 -18.25 Z M 26.078125 -18.25 "/></g></g></g><g fill="#072422" fill-opacity="1"><g transform="translate(267.156419, 201.297231)"><g><path d="M 20.4375 -29.828125 C 21.5 -29.234375 22.066406 -28.375 22.140625 -27.25 C 22.171875 -26.695312 22.0625 -26.082031 21.8125 -25.40625 C 21.132812 -23.96875 19.195312 -22.925781 16 -22.28125 L 15.359375 -22.125 C 15.378906 -21.3125 15.347656 -19.441406 15.265625 -16.515625 C 15.265625 -14.742188 15.273438 -13.691406 15.296875 -13.359375 C 15.441406 -11.023438 16 -9.46875 16.96875 -8.6875 C 17.945312 -8.476562 18.765625 -8.097656 19.421875 -7.546875 C 20.078125 -7.003906 20.425781 -6.367188 20.46875 -5.640625 C 20.550781 -4.441406 20.21875 -3.394531 19.46875 -2.5 C 18.71875 -1.601562 17.847656 -1.125 16.859375 -1.0625 C 14.253906 -0.894531 12.40625 -1.382812 11.3125 -2.53125 C 8.789062 -5.164062 7.414062 -9.066406 7.1875 -14.234375 C 7.226562 -14.816406 7.175781 -16.90625 7.03125 -20.5 L 4.796875 -20.015625 C 3.921875 -19.867188 3.125 -20.117188 2.40625 -20.765625 C 1.6875 -21.410156 1.316406 -22.210938 1.296875 -23.171875 C 1.203125 -24.046875 1.460938 -24.816406 2.078125 -25.484375 C 2.691406 -26.148438 3.488281 -26.585938 4.46875 -26.796875 L 6.765625 -27.328125 L 6.6875 -28.40625 L 6.46875 -31.875 C 6.375 -33.414062 6.382812 -34.46875 6.5 -35.03125 L 6.578125 -35.484375 C 6.742188 -36.328125 7.179688 -37.023438 7.890625 -37.578125 C 8.328125 -38.742188 9.160156 -39.460938 10.390625 -39.734375 C 10.484375 -39.773438 10.660156 -39.800781 10.921875 -39.8125 C 11.578125 -39.851562 12.234375 -39.675781 12.890625 -39.28125 C 13.703125 -38.707031 14.191406 -37.984375 14.359375 -37.109375 L 14.4375 -36.71875 C 14.539062 -36.15625 14.601562 -35.742188 14.625 -35.484375 C 14.863281 -33.441406 15.015625 -31.925781 15.078125 -30.9375 L 15.1875 -29.234375 L 15.671875 -29.3125 C 17.773438 -29.8125 18.9375 -30.066406 19.15625 -30.078125 C 19.695312 -30.109375 20.125 -30.023438 20.4375 -29.828125 Z M 20.4375 -29.828125 "/></g></g></g><g clip-path="url(#065cd970bb)"><path fill="#072422" d="M 320.351562 121.113281 L 323.835938 129.238281 C 324.03125 129.691406 324.472656 129.988281 324.964844 129.996094 C 324.972656 129.996094 324.972656 129.996094 324.980469 129.996094 C 325.46875 129.996094 325.910156 129.714844 326.121094 129.28125 L 337.207031 105.882812 C 337.433594 105.398438 337.332031 104.828125 336.949219 104.453125 C 336.578125 104.082031 336.007812 103.980469 335.523438 104.214844 L 311.679688 115.734375 C 311.230469 115.953125 310.949219 116.429688 310.976562 116.933594 C 311 117.433594 311.332031 117.875 311.808594 118.046875 Z M 320.351562 121.113281 " fill-opacity="1" fill-rule="nonzero"/></g><g clip-path="url(#6ab4011839)"><g clip-path="url(#63e3345af5)"><path fill="#072422" d="M 73.648438 246.300781 L 95.085938 246.300781 L 95.085938 263.773438 L 73.648438 263.773438 Z M 73.648438 246.300781 " fill-opacity="1" fill-rule="nonzero"/></g></g><g clip-path="url(#3444080378)"><g clip-path="url(#fe87800e27)"><path fill="#072422" d="M 49.949219 219.226562 L 68.699219 219.226562 L 68.699219 246.324219 L 49.949219 246.324219 Z M 49.949219 219.226562 " fill-opacity="1" fill-rule="nonzero"/></g></g><g clip-path="url(#405cdc6838)"><g clip-path="url(#8e47d494eb)"><path fill="#072422" d="M 44.25 177.300781 L 60.824219 177.300781 L 60.824219 209.027344 L 44.25 209.027344 Z M 44.25 177.300781 " fill-opacity="1" fill-rule="nonzero"/></g></g><g clip-path="url(#dfcc44c256)"><g clip-path="url(#01c373ddc5)"><path fill="#072422" d="M 62.324219 138.449219 L 84.9375 138.449219 L 84.9375 160.050781 L 62.324219 160.050781 Z M 62.324219 138.449219 " fill-opacity="1" fill-rule="nonzero"/></g></g><g clip-path="url(#601530491d)"><g clip-path="url(#0f6260e245)"><path fill="#072422" d="M 108.976562 128.476562 L 131.828125 128.476562 L 131.828125 143.101562 L 108.976562 143.101562 Z M 108.976562 128.476562 " fill-opacity="1" fill-rule="nonzero"/></g></g><g clip-path="url(#69074152b1)"><g clip-path="url(#9e20097601)"><path fill="#072422" d="M 133.800781 136.949219 L 157.761719 136.949219 L 157.761719 158.476562 L 133.800781 158.476562 Z M 133.800781 136.949219 " fill-opacity="1" fill-rule="nonzero"/></g></g><g clip-path="url(#c3df5d5c5f)"><g clip-path="url(#e5cefbe78b)"><path fill="#072422" d="M 188.773438 212.398438 L 208.949219 212.398438 L 208.949219 233.207031 L 188.773438 233.207031 Z M 188.773438 212.398438 " fill-opacity="1" fill-rule="nonzero"/></g></g><g clip-path="url(#7f1e7422d4)"><g clip-path="url(#50a69a0cba)"><path fill="#072422" d="M 217.875 233.925781 L 245.199219 233.925781 L 245.199219 251.324219 L 217.875 251.324219 Z M 217.875 233.925781 " fill-opacity="1" fill-rule="nonzero"/></g></g><g clip-path="url(#dafe727e7e)"><g clip-path="url(#ed739ddcaf)"><path fill="#072422" d="M 266.625 222.300781 L 285.074219 222.300781 L 285.074219 239.476562 L 266.625 239.476562 Z M 266.625 222.300781 " fill-opacity="1" fill-rule="nonzero"/></g></g><g clip-path="url(#336d88b736)"><g clip-path="url(#abec100654)"><path fill="#072422" d="M 289.351562 196.5 L 305.925781 196.5 L 305.925781 215.46875 L 289.351562 215.46875 Z M 289.351562 196.5 " fill-opacity="1" fill-rule="nonzero"/></g></g><g clip-path="url(#fbf58fd57d)"><g clip-path="url(#a3d9132b50)"><path fill="#072422" d="M 296.25 166.425781 L 310.574219 166.425781 L 310.574219 193.058594 L 296.25 193.058594 Z M 296.25 166.425781 " fill-opacity="1" fill-rule="nonzero"/></g></g><g clip-path="url(#eb317492c4)"><g clip-path="url(#e559d44001)"><path fill="#072422" d="M 296.550781 132.976562 L 312.148438 132.976562 L 312.148438 153.875 L 296.550781 153.875 Z M 296.550781 132.976562 " fill-opacity="1" fill-rule="nonzero"/></g></g><g clip-path="url(#e2103ae528)"><g clip-path="url(#17703935ae)"><path fill="#dbf9f0" d="M 299.289062 246.300781 L 325.03125 246.300781 L 325.03125 268.050781 L 299.289062 268.050781 Z M 299.289062 246.300781 " fill-opacity="1" fill-rule="nonzero"/></g></g><g clip-path="url(#69d75f9e35)"><g clip-path="url(#9073f37b66)"><path fill="#dbf9f0" d="M 262.269531 138.449219 L 285.054688 151.886719 L 273.550781 171.398438 L 250.761719 157.960938 Z M 262.269531 138.449219 " fill-opacity="1" fill-rule="nonzero"/></g></g><g clip-path="url(#94526d044b)"><g clip-path="url(#bc3311ede7)"><g clip-path="url(#7342dfeeff)"><path fill="#072422" d="M 289.167969 145.117188 L 281.632812 134.804688 C 281.558594 134.71875 281.46875 134.664062 281.359375 134.648438 L 268.8125 133.375 L 261.390625 123.207031 C 261.316406 123.117188 261.21875 123.0625 261.101562 123.046875 L 248.386719 121.765625 C 248.210938 121.746094 248.078125 121.816406 247.988281 121.96875 L 232.140625 149.640625 C 232.105469 149.699219 232.085938 149.765625 232.085938 149.835938 C 232.082031 149.90625 232.097656 149.972656 232.128906 150.035156 C 232.160156 150.097656 232.207031 150.148438 232.265625 150.1875 C 232.320312 150.226562 232.386719 150.25 232.457031 150.257812 L 244.980469 151.519531 L 252.40625 161.683594 C 252.46875 161.769531 252.554688 161.820312 252.664062 161.832031 L 265.222656 163.113281 L 272.648438 173.277344 C 272.6875 173.335938 272.742188 173.378906 272.804688 173.40625 C 272.867188 173.4375 272.933594 173.449219 273.003906 173.445312 C 273.074219 173.441406 273.140625 173.421875 273.199219 173.382812 C 273.257812 173.347656 273.304688 173.296875 273.339844 173.238281 L 289.191406 145.5625 C 289.277344 145.40625 289.269531 145.257812 289.167969 145.117188 Z M 284.480469 146.113281 C 282.613281 149.371094 280.292969 148.457031 278.28125 147.667969 C 277.171875 147.230469 276.21875 146.855469 275.527344 147.355469 C 274.980469 147.753906 274.777344 148.589844 274.863281 150.070312 C 275.09375 153.957031 274.480469 158.644531 272.078125 160.136719 C 270.910156 160.855469 269.40625 160.742188 267.597656 159.796875 L 267.65625 159.691406 C 268.148438 159.796875 268.648438 159.863281 269.152344 159.894531 C 269.269531 159.910156 269.375 159.882812 269.46875 159.804688 C 269.558594 159.730469 269.609375 159.632812 269.617188 159.515625 C 269.625 159.394531 269.589844 159.292969 269.507812 159.203125 C 269.421875 159.117188 269.324219 159.074219 269.203125 159.078125 C 268.832031 159.042969 268.464844 158.992188 268.097656 158.917969 L 270.296875 155.085938 C 270.285156 155.183594 270.3125 155.269531 270.371094 155.351562 C 271.132812 156.386719 271.441406 157.257812 271.339844 158.082031 C 271.324219 158.195312 271.351562 158.296875 271.421875 158.386719 C 271.492188 158.476562 271.582031 158.527344 271.695312 158.542969 C 271.808594 158.554688 271.910156 158.527344 272 158.457031 C 272.085938 158.386719 272.140625 158.292969 272.152344 158.183594 C 272.273438 157.144531 271.914062 156.0625 271.03125 154.867188 C 270.96875 154.777344 270.882812 154.726562 270.773438 154.707031 C 270.667969 154.6875 270.566406 154.707031 270.476562 154.765625 L 281.339844 135.800781 L 286.128906 142.339844 C 285.714844 143.65625 285.164062 144.917969 284.480469 146.113281 Z M 261.675781 161.925781 C 260.605469 160.574219 259.296875 159.519531 257.753906 158.761719 C 256.96875 158.363281 256.25 157.867188 255.59375 157.28125 L 256.65625 155.425781 C 256.753906 155.464844 256.847656 155.46875 256.945312 155.433594 C 257.042969 155.398438 257.117188 155.335938 257.167969 155.246094 C 257.261719 155.046875 257.222656 154.878906 257.046875 154.746094 L 262.425781 145.351562 C 262.742188 145.578125 263.066406 145.785156 263.402344 145.976562 L 263.46875 146.015625 C 263.484375 146.652344 263.621094 147.261719 263.890625 147.839844 C 263.941406 147.9375 264.015625 148.003906 264.117188 148.039062 C 264.222656 148.074219 264.324219 148.070312 264.421875 148.027344 C 264.519531 147.980469 264.589844 147.910156 264.632812 147.808594 C 264.675781 147.710938 264.679688 147.609375 264.640625 147.507812 C 264.503906 147.203125 264.40625 146.886719 264.347656 146.558594 C 267.078125 148.359375 267.785156 150.042969 267.488281 151.113281 C 267.136719 150.765625 266.789062 150.417969 266.46875 150.058594 C 266.394531 149.972656 266.296875 149.929688 266.183594 149.925781 C 266.070312 149.921875 265.972656 149.957031 265.886719 150.035156 C 265.804688 150.113281 265.761719 150.207031 265.757812 150.320312 C 265.753906 150.433594 265.789062 150.535156 265.863281 150.617188 C 266.246094 151.027344 266.65625 151.4375 267.0625 151.839844 C 266.695312 152.160156 266.277344 152.382812 265.804688 152.507812 C 265.332031 152.636719 264.859375 152.648438 264.378906 152.554688 C 262.871094 152.34375 261.78125 152.789062 261.449219 153.75 C 261.171875 154.566406 261.492188 155.828125 262.851562 157.292969 C 261.949219 156.9375 260.984375 156.527344 259.972656 156.074219 C 259.871094 156.023438 259.769531 156.015625 259.660156 156.050781 C 259.550781 156.085938 259.472656 156.15625 259.421875 156.257812 C 259.367188 156.359375 259.359375 156.460938 259.394531 156.570312 C 259.429688 156.679688 259.5 156.757812 259.601562 156.808594 L 259.644531 156.835938 C 260.71875 157.316406 261.746094 157.75 262.703125 158.113281 C 262.808594 158.15625 262.914062 158.152344 263.019531 158.105469 C 263.125 158.0625 263.195312 157.984375 263.238281 157.878906 C 263.257812 157.820312 263.265625 157.757812 263.261719 157.699219 C 264.246094 158.617188 265.324219 159.414062 266.492188 160.089844 L 265.242188 162.273438 Z M 261.097656 124.207031 L 262.402344 126 C 261.316406 126.828125 260.648438 127.917969 260.402344 129.261719 C 260.148438 130.878906 260.769531 132.582031 262.246094 134.320312 C 264.078125 136.464844 263.046875 138.054688 261.960938 139.738281 C 260.972656 141.257812 259.867188 142.980469 261.785156 144.8125 L 256.320312 154.347656 L 255.265625 153.839844 C 255.457031 153.503906 255.726562 153.15625 255.996094 152.792969 C 256.738281 151.792969 257.5 150.765625 257.324219 149.644531 C 257.234375 148.96875 256.789062 148.34375 256 147.757812 C 255.488281 147.355469 254.914062 147.078125 254.277344 146.925781 C 253.640625 146.777344 253.003906 146.769531 252.363281 146.90625 C 249.5 147.5 247.152344 150.699219 246.316406 151.976562 L 245.675781 151.101562 Z M 254.875 154.5625 L 255.902344 155.085938 L 255.019531 156.628906 C 254.808594 156.324219 254.6875 155.988281 254.664062 155.617188 C 254.636719 155.246094 254.707031 154.894531 254.875 154.5625 Z M 246.847656 152.6875 C 247.433594 151.757812 249.796875 148.265625 252.550781 147.695312 C 253.074219 147.585938 253.597656 147.59375 254.121094 147.71875 C 254.640625 147.84375 255.109375 148.074219 255.527344 148.410156 C 256.046875 148.71875 256.378906 149.164062 256.523438 149.75 C 256.644531 150.527344 256.019531 151.359375 255.335938 152.28125 C 255.066406 152.644531 254.785156 153.027344 254.53125 153.433594 L 254.0625 153.164062 C 253.960938 153.105469 253.859375 153.09375 253.75 153.125 C 253.640625 153.152344 253.554688 153.21875 253.5 153.316406 C 253.441406 153.414062 253.429688 153.519531 253.460938 153.628906 C 253.488281 153.738281 253.554688 153.820312 253.652344 153.878906 L 254.132812 154.152344 C 253.867188 154.6875 253.773438 155.25 253.855469 155.84375 C 253.9375 156.433594 254.179688 156.953125 254.582031 157.394531 L 252.699219 160.683594 Z M 255.175781 158.011719 C 255.851562 158.589844 256.582031 159.082031 257.367188 159.492188 C 258.550781 160.089844 259.601562 160.863281 260.523438 161.8125 L 253.410156 161.09375 Z M 267.242188 158.757812 C 266.871094 158.671875 266.476562 158.5625 266.0625 158.441406 C 265.886719 158.386719 265.738281 158.433594 265.621094 158.582031 C 262.714844 156.558594 261.941406 154.816406 262.203125 154.019531 C 262.390625 153.464844 263.140625 153.214844 264.242188 153.371094 C 264.847656 153.488281 265.453125 153.464844 266.046875 153.296875 C 266.644531 153.128906 267.171875 152.835938 267.628906 152.417969 L 267.667969 152.441406 L 268.195312 152.957031 L 268.285156 153.007812 C 268.375 153.078125 268.476562 153.101562 268.589844 153.085938 C 268.703125 153.070312 268.796875 153.019531 268.863281 152.925781 C 268.933594 152.835938 268.960938 152.734375 268.945312 152.621094 C 268.929688 152.507812 268.875 152.417969 268.785156 152.347656 L 268.128906 151.707031 C 268.171875 151.621094 268.210938 151.53125 268.242188 151.4375 C 268.867188 149.609375 267.40625 147.429688 264.328125 145.535156 C 264.371094 145.222656 264.457031 144.921875 264.582031 144.632812 C 264.628906 144.53125 264.632812 144.425781 264.589844 144.320312 C 264.550781 144.214844 264.476562 144.136719 264.371094 144.089844 C 264.269531 144.046875 264.164062 144.042969 264.058594 144.085938 C 263.953125 144.125 263.878906 144.195312 263.832031 144.296875 C 263.714844 144.554688 263.625 144.820312 263.5625 145.09375 C 263.292969 144.9375 263.050781 144.769531 262.84375 144.613281 L 268.8125 134.199219 L 280.625 135.394531 Z M 262.214844 144.070312 C 261.023438 142.832031 261.605469 141.824219 262.65625 140.175781 C 263.75 138.488281 265.113281 136.394531 262.886719 133.777344 C 261.566406 132.230469 261.007812 130.753906 261.214844 129.386719 C 261.433594 128.265625 261.996094 127.351562 262.898438 126.652344 L 268.101562 133.789062 Z M 248.570312 122.609375 L 260.382812 123.796875 L 244.980469 150.691406 L 233.167969 149.5 Z M 272.941406 172.277344 L 265.9375 162.695312 L 267.191406 160.5 C 269.285156 161.601562 271.074219 161.722656 272.511719 160.832031 C 274.8125 159.40625 276 155.363281 275.6875 150.027344 C 275.585938 148.546875 275.851562 148.140625 276.007812 148.019531 C 276.335938 147.785156 277.136719 148.101562 277.980469 148.433594 C 279.96875 149.214844 282.972656 150.398438 285.191406 146.523438 C 285.804688 145.453125 286.316406 144.332031 286.722656 143.167969 L 288.34375 145.382812 Z M 272.941406 172.277344 " fill-opacity="1" fill-rule="nonzero"/></g></g></g><g clip-path="url(#4fcc2d1719)"><g clip-path="url(#9152154980)"><g clip-path="url(#fb201f4aff)"><path fill="#072422" d="M 247.976562 134.019531 C 248.054688 134.234375 248.210938 134.324219 248.4375 134.28125 C 248.632812 134.246094 253.265625 133.339844 254.910156 130.46875 C 255.15625 130.011719 255.300781 129.527344 255.355469 129.011719 C 255.410156 128.496094 255.363281 127.988281 255.21875 127.492188 C 255.078125 126.992188 254.84375 126.539062 254.523438 126.132812 C 254.203125 125.726562 253.820312 125.394531 253.371094 125.136719 C 252.921875 124.878906 252.4375 124.714844 251.925781 124.644531 C 251.410156 124.574219 250.90625 124.601562 250.402344 124.730469 C 249.898438 124.859375 249.441406 125.078125 249.023438 125.382812 C 248.605469 125.691406 248.261719 126.0625 247.988281 126.503906 C 246.351562 129.359375 247.917969 133.816406 247.976562 134.019531 Z M 253.023438 125.742188 C 253.386719 125.953125 253.699219 126.222656 253.953125 126.554688 C 254.210938 126.886719 254.394531 127.253906 254.503906 127.660156 C 254.613281 128.0625 254.640625 128.476562 254.589844 128.890625 C 254.535156 129.308594 254.40625 129.695312 254.199219 130.0625 C 252.984375 132.179688 249.722656 133.128906 248.640625 133.398438 C 248.308594 132.320312 247.492188 129.03125 248.703125 126.914062 C 248.910156 126.546875 249.179688 126.234375 249.511719 125.976562 C 249.847656 125.71875 250.214844 125.535156 250.621094 125.421875 C 251.027344 125.3125 251.441406 125.28125 251.859375 125.335938 C 252.277344 125.386719 252.667969 125.519531 253.03125 125.730469 Z M 253.023438 125.742188 " fill-opacity="1" fill-rule="nonzero"/></g></g></g><g clip-path="url(#33484bf008)"><g clip-path="url(#fce40d5831)"><g clip-path="url(#0e853b49b9)"><path fill="#072422" d="M 253.144531 129.390625 C 253.269531 129.171875 253.351562 128.933594 253.382812 128.679688 C 253.414062 128.425781 253.398438 128.179688 253.332031 127.933594 C 253.265625 127.6875 253.152344 127.460938 252.996094 127.261719 C 252.839844 127.058594 252.652344 126.894531 252.429688 126.769531 C 252.210938 126.640625 251.972656 126.5625 251.71875 126.53125 C 251.464844 126.5 251.21875 126.515625 250.972656 126.582031 C 250.726562 126.648438 250.5 126.761719 250.300781 126.917969 C 250.097656 127.074219 249.933594 127.261719 249.808594 127.484375 C 249.683594 127.707031 249.601562 127.941406 249.570312 128.195312 C 249.539062 128.449219 249.554688 128.699219 249.625 128.945312 C 249.691406 129.191406 249.804688 129.414062 249.960938 129.613281 C 250.117188 129.816406 250.304688 129.980469 250.527344 130.105469 C 250.746094 130.230469 250.984375 130.3125 251.234375 130.34375 C 251.488281 130.375 251.738281 130.355469 251.984375 130.289062 C 252.226562 130.222656 252.453125 130.113281 252.652344 129.957031 C 252.855469 129.800781 253.019531 129.613281 253.144531 129.390625 Z M 250.527344 127.894531 C 250.601562 127.765625 250.695312 127.660156 250.808594 127.570312 C 250.925781 127.480469 251.050781 127.417969 251.191406 127.378906 C 251.332031 127.339844 251.476562 127.332031 251.621094 127.347656 C 251.765625 127.367188 251.898438 127.414062 252.027344 127.484375 C 252.152344 127.558594 252.261719 127.652344 252.351562 127.765625 C 252.4375 127.882812 252.503906 128.011719 252.539062 128.152344 C 252.578125 128.292969 252.589844 128.433594 252.570312 128.578125 C 252.550781 128.722656 252.507812 128.859375 252.433594 128.984375 C 252.363281 129.109375 252.265625 129.21875 252.152344 129.308594 C 252.035156 129.398438 251.910156 129.460938 251.769531 129.5 C 251.628906 129.535156 251.484375 129.546875 251.339844 129.527344 C 251.195312 129.511719 251.0625 129.464844 250.933594 129.390625 C 250.808594 129.320312 250.699219 129.226562 250.613281 129.109375 C 250.523438 128.996094 250.457031 128.867188 250.421875 128.726562 C 250.382812 128.585938 250.371094 128.445312 250.390625 128.300781 C 250.410156 128.15625 250.453125 128.019531 250.527344 127.894531 Z M 250.527344 127.894531 " fill-opacity="1" fill-rule="nonzero"/></g></g></g><g clip-path="url(#6b9320ebd9)"><g clip-path="url(#532c65b044)"><g clip-path="url(#3d7a900422)"><path fill="#072422" d="M 250.101562 138.113281 L 245.378906 137.386719 L 242.144531 136.894531 C 241.957031 136.863281 241.820312 136.929688 241.726562 137.09375 L 235.5625 147.851562 C 235.507812 147.949219 235.492188 148.054688 235.523438 148.164062 C 235.554688 148.273438 235.617188 148.355469 235.714844 148.414062 C 235.855469 148.492188 235.390625 148.402344 244.019531 149.375 C 244.199219 149.394531 244.335938 149.328125 244.421875 149.171875 L 250.40625 138.726562 C 250.4375 138.667969 250.457031 138.605469 250.460938 138.535156 C 250.460938 138.464844 250.449219 138.402344 250.417969 138.339844 C 250.386719 138.277344 250.34375 138.226562 250.289062 138.1875 C 250.234375 138.148438 250.171875 138.121094 250.101562 138.113281 Z M 246.960938 141.117188 C 246.734375 140.332031 245.691406 140.574219 245.378906 139.6875 C 245.257812 139.1875 245.3125 138.707031 245.546875 138.246094 L 249.382812 138.832031 L 246.054688 144.640625 C 245.851562 144.488281 245.71875 144.289062 245.660156 144.042969 C 245.578125 143.578125 245.992188 143.046875 246.359375 142.574219 C 246.722656 142.101562 247.105469 141.613281 246.964844 141.117188 Z M 244.714844 138.117188 C 244.464844 138.71875 244.429688 139.332031 244.609375 139.957031 C 244.949219 140.917969 245.855469 141.140625 246.121094 141.296875 L 246.179688 141.328125 C 246.066406 141.601562 245.910156 141.84375 245.714844 142.0625 C 245.269531 142.636719 244.714844 143.355469 244.859375 144.171875 C 244.96875 144.667969 245.234375 145.0625 245.652344 145.351562 L 244.632812 147.136719 C 244.132812 146.621094 243.574219 146.1875 242.949219 145.835938 C 242.234375 145.375 241.492188 144.902344 241.445312 144.449219 C 241.464844 144.128906 241.601562 143.871094 241.855469 143.671875 C 242.808594 142.71875 243.207031 141.777344 243.035156 140.878906 C 242.820312 140.042969 242.332031 139.414062 241.578125 138.992188 L 242.289062 137.746094 Z M 243.835938 148.523438 L 236.582031 147.714844 L 241.171875 139.699219 C 241.710938 139.992188 242.066406 140.433594 242.230469 141.027344 C 242.355469 141.640625 242.027344 142.332031 241.277344 143.085938 C 240.828125 143.453125 240.613281 143.929688 240.628906 144.507812 C 240.722656 145.351562 241.589844 145.90625 242.507812 146.496094 C 243.203125 146.941406 243.894531 147.382812 244.183594 147.890625 Z M 243.835938 148.523438 " fill-opacity="1" fill-rule="nonzero"/></g></g></g><g clip-path="url(#e16615adc6)"><g clip-path="url(#341c299549)"><g clip-path="url(#f3dc922860)"><path fill="#072422" d="M 252.292969 150.820312 C 252.113281 150.714844 251.917969 150.648438 251.707031 150.621094 C 251.5 150.59375 251.292969 150.609375 251.089844 150.664062 C 250.886719 150.71875 250.703125 150.8125 250.539062 150.941406 C 250.371094 151.070312 250.234375 151.222656 250.132812 151.40625 C 250.027344 151.589844 249.960938 151.785156 249.933594 151.992188 C 249.910156 152.199219 249.921875 152.40625 249.976562 152.609375 C 250.03125 152.8125 250.125 152.996094 250.253906 153.160156 C 250.382812 153.328125 250.535156 153.464844 250.71875 153.566406 C 250.902344 153.671875 251.097656 153.738281 251.304688 153.765625 C 251.511719 153.792969 251.71875 153.777344 251.921875 153.722656 C 252.125 153.667969 252.308594 153.574219 252.476562 153.445312 C 252.640625 153.316406 252.777344 153.164062 252.882812 152.980469 C 252.984375 152.796875 253.050781 152.601562 253.078125 152.394531 C 253.101562 152.1875 253.089844 151.980469 253.035156 151.777344 C 252.976562 151.574219 252.886719 151.390625 252.757812 151.226562 C 252.628906 151.058594 252.476562 150.921875 252.292969 150.820312 Z M 251.128906 152.855469 C 250.945312 152.75 250.828125 152.59375 250.773438 152.394531 C 250.714844 152.191406 250.742188 151.996094 250.847656 151.816406 C 250.949219 151.632812 251.105469 151.515625 251.308594 151.457031 C 251.507812 151.402344 251.703125 151.429688 251.882812 151.53125 C 252.066406 151.636719 252.1875 151.789062 252.242188 151.992188 C 252.296875 152.195312 252.269531 152.390625 252.167969 152.570312 C 252.0625 152.753906 251.910156 152.871094 251.707031 152.929688 C 251.503906 152.984375 251.308594 152.957031 251.128906 152.855469 Z M 251.128906 152.855469 " fill-opacity="1" fill-rule="nonzero"/></g></g></g><g clip-path="url(#c4287d6453)"><g clip-path="url(#9b27d7bd62)"><g clip-path="url(#0d8f3369f2)"><path fill="#072422" d="M 272.527344 140.964844 C 272.707031 141.070312 272.902344 141.136719 273.113281 141.164062 C 273.320312 141.191406 273.527344 141.175781 273.726562 141.121094 C 273.929688 141.066406 274.117188 140.972656 274.28125 140.84375 C 274.449219 140.714844 274.582031 140.5625 274.6875 140.378906 C 274.792969 140.195312 274.855469 140 274.882812 139.792969 C 274.910156 139.585938 274.898438 139.378906 274.839844 139.175781 C 274.785156 138.972656 274.695312 138.789062 274.566406 138.625 C 274.4375 138.457031 274.28125 138.320312 274.101562 138.21875 C 273.917969 138.113281 273.722656 138.046875 273.515625 138.019531 C 273.304688 137.992188 273.101562 138.007812 272.898438 138.0625 C 272.695312 138.117188 272.511719 138.210938 272.34375 138.339844 C 272.179688 138.46875 272.042969 138.621094 271.9375 138.804688 C 271.832031 138.988281 271.769531 139.183594 271.742188 139.390625 C 271.714844 139.597656 271.730469 139.804688 271.785156 140.007812 C 271.839844 140.210938 271.929688 140.394531 272.058594 140.558594 C 272.1875 140.726562 272.34375 140.863281 272.527344 140.964844 Z M 273.6875 138.933594 C 273.871094 139.039062 273.992188 139.195312 274.046875 139.398438 C 274.101562 139.601562 274.074219 139.792969 273.96875 139.976562 C 273.867188 140.15625 273.710938 140.277344 273.507812 140.332031 C 273.304688 140.386719 273.113281 140.359375 272.929688 140.253906 C 272.746094 140.148438 272.628906 139.996094 272.574219 139.792969 C 272.519531 139.589844 272.546875 139.394531 272.652344 139.214844 C 272.757812 139.03125 272.910156 138.914062 273.113281 138.863281 C 273.316406 138.808594 273.507812 138.832031 273.6875 138.9375 Z M 273.6875 138.933594 " fill-opacity="1" fill-rule="nonzero"/></g></g></g><g clip-path="url(#a03f74026d)"><g clip-path="url(#31ad0776c9)"><g clip-path="url(#04256d85c7)"><path fill="#072422" d="M 265.871094 142.175781 C 265.945312 142.261719 266.039062 142.308594 266.148438 142.316406 C 266.257812 142.324219 266.355469 142.292969 266.441406 142.222656 C 267.234375 141.515625 268.121094 140.972656 269.109375 140.589844 C 269.21875 140.550781 269.300781 140.476562 269.347656 140.371094 C 269.398438 140.265625 269.402344 140.160156 269.363281 140.050781 C 269.324219 139.941406 269.253906 139.859375 269.148438 139.808594 C 269.042969 139.761719 268.933594 139.753906 268.824219 139.796875 C 267.746094 140.214844 266.773438 140.808594 265.90625 141.578125 C 265.816406 141.65625 265.765625 141.753906 265.761719 141.871094 C 265.753906 141.988281 265.792969 142.089844 265.871094 142.175781 Z M 265.871094 142.175781 " fill-opacity="1" fill-rule="nonzero"/></g></g></g><g clip-path="url(#3dcd66da3b)"><g clip-path="url(#abcfa8467d)"><path fill="#dbf9f0" d="M 73.648438 196.5 L 100.6875 196.5 L 100.6875 223.644531 L 73.648438 223.644531 Z M 73.648438 196.5 " fill-opacity="1" fill-rule="nonzero"/></g></g><g clip-path="url(#4d97e208cc)"><g clip-path="url(#2c97815cb8)"><g clip-path="url(#c785f8319c)"><path fill="#072422" d="M 90.425781 222.558594 C 83.3125 224.367188 76.050781 220.054688 74.242188 212.9375 C 72.433594 205.824219 76.75 198.5625 83.863281 196.753906 C 90.980469 194.945312 98.238281 199.261719 100.046875 206.375 C 101.859375 213.492188 97.539062 220.75 90.425781 222.558594 Z M 84.40625 198.875 C 83.695312 199.054688 83.011719 199.304688 82.355469 199.617188 C 81.695312 199.933594 81.074219 200.308594 80.488281 200.746094 C 79.902344 201.183594 79.367188 201.671875 78.878906 202.214844 C 78.386719 202.757812 77.957031 203.34375 77.585938 203.972656 C 77.210938 204.601562 76.902344 205.257812 76.660156 205.945312 C 76.414062 206.636719 76.242188 207.339844 76.136719 208.0625 C 76.03125 208.785156 76 209.511719 76.039062 210.242188 C 76.078125 210.972656 76.183594 211.691406 76.367188 212.398438 C 76.546875 213.105469 76.792969 213.789062 77.109375 214.449219 C 77.421875 215.109375 77.796875 215.730469 78.234375 216.316406 C 78.671875 216.898438 79.164062 217.4375 79.707031 217.925781 C 80.25 218.414062 80.832031 218.84375 81.460938 219.21875 C 82.089844 219.589844 82.746094 219.898438 83.4375 220.144531 C 84.125 220.386719 84.832031 220.5625 85.554688 220.664062 C 86.277344 220.769531 87.003906 220.804688 87.730469 220.765625 C 88.460938 220.726562 89.179688 220.617188 89.886719 220.4375 C 90.59375 220.257812 91.277344 220.011719 91.9375 219.695312 C 92.597656 219.378906 93.21875 219.003906 93.804688 218.566406 C 94.390625 218.128906 94.925781 217.640625 95.414062 217.097656 C 95.902344 216.554688 96.332031 215.96875 96.707031 215.339844 C 97.082031 214.714844 97.390625 214.054688 97.632812 213.367188 C 97.875 212.679688 98.050781 211.972656 98.15625 211.25 C 98.257812 210.527344 98.292969 209.800781 98.253906 209.070312 C 98.214844 208.34375 98.105469 207.625 97.925781 206.914062 C 97.746094 206.207031 97.496094 205.523438 97.183594 204.867188 C 96.867188 204.207031 96.492188 203.585938 96.054688 203.003906 C 95.617188 202.417969 95.125 201.882812 94.582031 201.394531 C 94.039062 200.90625 93.453125 200.472656 92.828125 200.101562 C 92.199219 199.726562 91.542969 199.417969 90.855469 199.175781 C 90.164062 198.933594 89.460938 198.757812 88.738281 198.652344 C 88.015625 198.546875 87.289062 198.515625 86.558594 198.554688 C 85.832031 198.589844 85.113281 198.699219 84.40625 198.878906 Z M 84.40625 198.875 " fill-opacity="1" fill-rule="nonzero"/></g></g></g><g clip-path="url(#a160871faf)"><g clip-path="url(#3ed23d7b75)"><g clip-path="url(#3253c2cb11)"><path fill="#072422" d="M 100.097656 221.585938 C 99.859375 221.644531 99.621094 221.636719 99.386719 221.554688 C 99.15625 221.46875 98.964844 221.332031 98.816406 221.132812 C 98.667969 220.933594 98.585938 220.710938 98.570312 220.464844 C 98.558594 220.21875 98.613281 219.988281 98.738281 219.773438 L 101.183594 215.628906 C 101.261719 215.476562 101.363281 215.347656 101.492188 215.242188 C 101.625 215.132812 101.769531 215.054688 101.933594 215.007812 C 102.09375 214.960938 102.257812 214.949219 102.425781 214.96875 C 102.59375 214.988281 102.75 215.042969 102.894531 215.128906 C 103.042969 215.214844 103.164062 215.324219 103.265625 215.460938 C 103.363281 215.597656 103.433594 215.746094 103.46875 215.910156 C 103.507812 216.074219 103.511719 216.242188 103.480469 216.40625 C 103.449219 216.574219 103.390625 216.726562 103.296875 216.867188 L 100.851562 221.011719 C 100.679688 221.308594 100.429688 221.5 100.097656 221.585938 Z M 100.097656 221.585938 " fill-opacity="1" fill-rule="nonzero"/></g></g></g><g clip-path="url(#61c9cc768d)"><g clip-path="url(#7bea9292f6)"><g clip-path="url(#e58985dc4d)"><path fill="#072422" d="M 117.191406 229.101562 C 116.617188 229.25 116.082031 229.167969 115.578125 228.859375 L 104.558594 222.128906 C 104.320312 221.984375 104.117188 221.800781 103.953125 221.574219 C 103.789062 221.347656 103.675781 221.101562 103.609375 220.828125 C 103.542969 220.558594 103.53125 220.285156 103.574219 220.011719 C 103.617188 219.734375 103.714844 219.476562 103.859375 219.238281 C 104.003906 219 104.1875 218.800781 104.414062 218.636719 C 104.640625 218.472656 104.886719 218.355469 105.160156 218.292969 C 105.429688 218.226562 105.703125 218.214844 105.976562 218.257812 C 106.253906 218.300781 106.511719 218.394531 106.75 218.539062 L 117.769531 225.269531 C 118.128906 225.492188 118.398438 225.792969 118.578125 226.175781 C 118.757812 226.558594 118.816406 226.960938 118.75 227.378906 C 118.6875 227.796875 118.515625 228.164062 118.230469 228.476562 C 117.949219 228.789062 117.601562 229 117.191406 229.101562 Z M 117.191406 229.101562 " fill-opacity="1" fill-rule="nonzero"/></g></g></g><g clip-path="url(#1eb9c7daff)"><g clip-path="url(#7740ed218b)"><g clip-path="url(#fcb1df4a82)"><path fill="#072422" d="M 89.433594 218.75 C 87.773438 219.171875 85.457031 219.253906 82.644531 218.042969 C 80.175781 216.980469 78.605469 214.78125 78.097656 211.683594 C 77.867188 210.25 77.855469 208.8125 78.066406 207.375 C 78.097656 207.199219 78.1875 207.058594 78.335938 206.953125 C 78.484375 206.851562 78.648438 206.816406 78.824219 206.84375 C 79.003906 206.875 79.144531 206.964844 79.25 207.113281 C 79.351562 207.261719 79.390625 207.421875 79.359375 207.601562 C 79.175781 208.902344 79.191406 210.203125 79.398438 211.503906 C 79.839844 214.15625 81.105469 215.949219 83.164062 216.835938 C 88.238281 219.023438 91.4375 216.410156 91.46875 216.382812 C 91.609375 216.261719 91.769531 216.210938 91.953125 216.222656 C 92.136719 216.238281 92.285156 216.316406 92.40625 216.457031 C 92.523438 216.597656 92.574219 216.761719 92.554688 216.941406 C 92.539062 217.125 92.457031 217.277344 92.3125 217.390625 C 92.234375 217.460938 91.207031 218.300781 89.433594 218.75 Z M 89.433594 218.75 " fill-opacity="1" fill-rule="nonzero"/></g></g></g></svg>